<svg width="80" height="121" viewBox="0 0 80 121" fill="none" xmlns="http://www.w3.org/2000/svg">
<path d="M66.6667 77.1V69.7667C66.6667 65.8768 65.2619 62.1463 62.7614 59.3958C60.2609 56.6452 56.8695 55.1 53.3333 55.1H26.6667C23.1304 55.1 19.7391 56.6452 17.2386 59.3958C14.7381 62.1463 13.3333 65.8768 13.3333 69.7667V77.1" stroke="#9AA8B2" stroke-width="5" stroke-linecap="round" stroke-linejoin="round"/>
<path d="M40 40.4333C47.3638 40.4333 53.3333 33.8668 53.3333 25.7667C53.3333 17.6665 47.3638 11.1 40 11.1C32.6362 11.1 26.6667 17.6665 26.6667 25.7667C26.6667 33.8668 32.6362 40.4333 40 40.4333Z" stroke="#9AA8B2" stroke-width="5" stroke-linecap="round" stroke-linejoin="round"/>
<path d="M11.9161 115.4C11.8361 115.4 11.7641 115.376 11.7001 115.328C11.6521 115.264 11.6281 115.192 11.6281 115.112V98.888C11.6281 98.808 11.6521 98.744 11.7001 98.696C11.7641 98.632 11.8361 98.6 11.9161 98.6H14.7241C14.8041 98.6 14.8681 98.632 14.9161 98.696C14.9801 98.744 15.0121 98.808 15.0121 98.888V112.376C15.0121 112.456 15.0521 112.496 15.1321 112.496H22.9801C23.0601 112.496 23.1241 112.528 23.1721 112.592C23.2361 112.64 23.2681 112.704 23.2681 112.784V115.112C23.2681 115.192 23.2361 115.264 23.1721 115.328C23.1241 115.376 23.0601 115.4 22.9801 115.4H11.9161ZM30.5944 115.592C29.2504 115.592 28.0984 115.24 27.1384 114.536C26.1784 113.832 25.5224 112.872 25.1704 111.656C24.9464 110.904 24.8344 110.088 24.8344 109.208C24.8344 108.264 24.9464 107.416 25.1704 106.664C25.5384 105.48 26.2024 104.552 27.1624 103.88C28.1224 103.208 29.2744 102.872 30.6184 102.872C31.9304 102.872 33.0504 103.208 33.9784 103.88C34.9064 104.536 35.5624 105.456 35.9464 106.64C36.2024 107.44 36.3304 108.28 36.3304 109.16C36.3304 110.024 36.2184 110.832 35.9944 111.584C35.6424 112.832 34.9864 113.816 34.0264 114.536C33.0824 115.24 31.9384 115.592 30.5944 115.592ZM30.5944 112.688C31.1224 112.688 31.5704 112.528 31.9384 112.208C32.3064 111.888 32.5704 111.448 32.7304 110.888C32.8584 110.376 32.9224 109.816 32.9224 109.208C32.9224 108.536 32.8584 107.968 32.7304 107.504C32.5544 106.96 32.2824 106.536 31.9144 106.232C31.5464 105.928 31.0984 105.776 30.5704 105.776C30.0264 105.776 29.5704 105.928 29.2024 106.232C28.8504 106.536 28.5944 106.96 28.4344 107.504C28.3064 107.888 28.2424 108.456 28.2424 109.208C28.2424 109.928 28.2984 110.488 28.4104 110.888C28.5704 111.448 28.8344 111.888 29.2024 112.208C29.5864 112.528 30.0504 112.688 30.5944 112.688ZM46.0418 103.352C46.0418 103.272 46.0658 103.208 46.1138 103.16C46.1778 103.096 46.2498 103.064 46.3298 103.064H49.1378C49.2178 103.064 49.2818 103.096 49.3298 103.16C49.3938 103.208 49.4258 103.272 49.4258 103.352V114.296C49.4258 116.392 48.8178 117.888 47.6018 118.784C46.4018 119.68 44.8498 120.128 42.9458 120.128C42.3858 120.128 41.7618 120.088 41.0738 120.008C40.9138 119.992 40.8338 119.888 40.8338 119.696L40.9298 117.224C40.9298 117.016 41.0418 116.928 41.2658 116.96C41.8418 117.056 42.3698 117.104 42.8498 117.104C43.8738 117.104 44.6578 116.88 45.2018 116.432C45.7618 115.984 46.0418 115.264 46.0418 114.272C46.0418 114.224 46.0258 114.2 45.9938 114.2C45.9618 114.184 45.9298 114.192 45.8978 114.224C45.2898 114.88 44.4018 115.208 43.2338 115.208C42.1938 115.208 41.2338 114.96 40.3538 114.464C39.4898 113.952 38.8738 113.136 38.5058 112.016C38.2658 111.28 38.1458 110.328 38.1458 109.16C38.1458 107.912 38.2898 106.896 38.5778 106.112C38.9138 105.136 39.4818 104.352 40.2818 103.76C41.0818 103.168 42.0098 102.872 43.0658 102.872C44.2978 102.872 45.2418 103.24 45.8978 103.976C45.9298 104.008 45.9618 104.024 45.9938 104.024C46.0258 104.008 46.0418 103.976 46.0418 103.928V103.352ZM45.8498 111.104C45.9778 110.624 46.0418 109.968 46.0418 109.136C46.0418 108.64 46.0258 108.256 45.9938 107.984C45.9618 107.712 45.9058 107.456 45.8258 107.216C45.6818 106.784 45.4418 106.44 45.1058 106.184C44.7698 105.912 44.3538 105.776 43.8578 105.776C43.3778 105.776 42.9698 105.912 42.6338 106.184C42.2978 106.44 42.0498 106.784 41.8898 107.216C41.6658 107.696 41.5538 108.344 41.5538 109.16C41.5538 110.056 41.6498 110.696 41.8418 111.08C41.9858 111.512 42.2338 111.864 42.5858 112.136C42.9538 112.392 43.3858 112.52 43.8818 112.52C44.3938 112.52 44.8178 112.392 45.1538 112.136C45.4898 111.864 45.7218 111.52 45.8498 111.104ZM53.6658 101.672C53.1218 101.672 52.6658 101.496 52.2978 101.144C51.9458 100.776 51.7698 100.32 51.7698 99.776C51.7698 99.216 51.9458 98.76 52.2978 98.408C52.6498 98.056 53.1058 97.88 53.6658 97.88C54.2258 97.88 54.6818 98.056 55.0338 98.408C55.3858 98.76 55.5618 99.216 55.5618 99.776C55.5618 100.32 55.3778 100.776 55.0098 101.144C54.6578 101.496 54.2098 101.672 53.6658 101.672ZM52.2258 115.4C52.1458 115.4 52.0738 115.376 52.0098 115.328C51.9618 115.264 51.9378 115.192 51.9378 115.112V103.328C51.9378 103.248 51.9618 103.184 52.0098 103.136C52.0738 103.072 52.1458 103.04 52.2258 103.04H55.0338C55.1138 103.04 55.1778 103.072 55.2258 103.136C55.2898 103.184 55.3218 103.248 55.3218 103.328V115.112C55.3218 115.192 55.2898 115.264 55.2258 115.328C55.1778 115.376 55.1138 115.4 55.0338 115.4H52.2258ZM64.3909 102.872C65.6709 102.872 66.7029 103.264 67.4869 104.048C68.2709 104.832 68.6629 105.896 68.6629 107.24V115.112C68.6629 115.192 68.6309 115.264 68.5669 115.328C68.5189 115.376 68.4549 115.4 68.3749 115.4H65.5669C65.4869 115.4 65.4149 115.376 65.3509 115.328C65.3029 115.264 65.2789 115.192 65.2789 115.112V107.936C65.2789 107.296 65.0949 106.776 64.7269 106.376C64.3749 105.976 63.9029 105.776 63.3109 105.776C62.7189 105.776 62.2389 105.976 61.8709 106.376C61.5189 106.776 61.3429 107.296 61.3429 107.936V115.112C61.3429 115.192 61.3109 115.264 61.2469 115.328C61.1989 115.376 61.1349 115.4 61.0549 115.4H58.2469C58.1669 115.4 58.0949 115.376 58.0309 115.328C57.9829 115.264 57.9589 115.192 57.9589 115.112V103.352C57.9589 103.272 57.9829 103.208 58.0309 103.16C58.0949 103.096 58.1669 103.064 58.2469 103.064H61.0549C61.1349 103.064 61.1989 103.096 61.2469 103.16C61.3109 103.208 61.3429 103.272 61.3429 103.352V104.192C61.3429 104.24 61.3589 104.272 61.3909 104.288C61.4229 104.304 61.4469 104.296 61.4629 104.264C62.1189 103.336 63.0949 102.872 64.3909 102.872Z" fill="#9AA8B2"/>
</svg>

