<svg width="159" height="13" viewBox="0 0 159 13" fill="none" xmlns="http://www.w3.org/2000/svg">
<path d="M0.690075 12V11.2702L4.25364 7.26456C4.71884 6.73899 5.09348 6.28977 5.37757 5.9169C5.66167 5.54403 5.86763 5.19957 5.99547 4.88352C6.12686 4.56747 6.19256 4.23899 6.19256 3.89808C6.19256 3.4826 6.0949 3.12038 5.89959 2.81143C5.70783 2.49893 5.44327 2.25568 5.10591 2.08168C4.76855 1.90767 4.38858 1.82067 3.966 1.82067C3.51855 1.82067 3.12615 1.91655 2.7888 2.10831C2.45499 2.30007 2.19576 2.56285 2.0111 2.89666C1.82644 3.23047 1.73411 3.61399 1.73411 4.04723H0.780629C0.780629 3.44354 0.919123 2.90909 1.19611 2.44389C1.47665 1.97514 1.8584 1.6076 2.34135 1.34126C2.82786 1.07493 3.37828 0.941761 3.99263 0.941761C4.59988 0.941761 5.13965 1.07315 5.61195 1.33594C6.08425 1.59517 6.45534 1.94851 6.72523 2.39595C6.99512 2.84339 7.13006 3.34411 7.13006 3.89808C7.13006 4.29936 7.05904 4.68821 6.91699 5.06463C6.7785 5.44105 6.5388 5.86008 6.19789 6.32173C5.85698 6.78338 5.38468 7.34801 4.78098 8.01562L2.07502 11.0359V11.1051H7.47097V12H0.690075ZM13.2331 12.1491C12.4661 12.1491 11.8109 11.929 11.2676 11.4886C10.7278 11.0447 10.3123 10.4038 10.0211 9.5657C9.73349 8.72763 9.58967 7.72088 9.58967 6.54545C9.58967 5.37358 9.73349 4.37038 10.0211 3.53587C10.3123 2.6978 10.7296 2.05682 11.2729 1.61293C11.8198 1.16548 12.4732 0.941761 13.2331 0.941761C13.9931 0.941761 14.6447 1.16548 15.188 1.61293C15.7349 2.05682 16.1522 2.6978 16.4398 3.53587C16.731 4.37038 16.8766 5.37358 16.8766 6.54545C16.8766 7.72088 16.731 8.72763 16.4398 9.5657C16.1522 10.4038 15.7367 11.0447 15.1934 11.4886C14.6536 11.929 14.0002 12.1491 13.2331 12.1491ZM13.2331 11.2543C14.0748 11.2543 14.7317 10.8441 15.204 10.0238C15.6763 9.19993 15.9125 8.04048 15.9125 6.54545C15.9125 5.55114 15.8042 4.70241 15.5875 3.99929C15.3745 3.29261 15.0673 2.75284 14.666 2.37997C14.2683 2.0071 13.7907 1.82067 13.2331 1.82067C12.3986 1.82067 11.7434 2.23615 11.2676 3.06712C10.7917 3.89453 10.5538 5.05398 10.5538 6.54545C10.5538 7.53977 10.6603 8.38849 10.8734 9.09162C11.09 9.79474 11.3972 10.331 11.7949 10.7003C12.1962 11.0696 12.6756 11.2543 13.2331 11.2543ZM19.0446 12V11.2702L22.6081 7.26456C23.0733 6.73899 23.448 6.28977 23.7321 5.9169C24.0162 5.54403 24.2221 5.19957 24.35 4.88352C24.4814 4.56747 24.5471 4.23899 24.5471 3.89808C24.5471 3.4826 24.4494 3.12038 24.2541 2.81143C24.0623 2.49893 23.7978 2.25568 23.4604 2.08168C23.123 1.90767 22.7431 1.82067 22.3205 1.82067C21.873 1.82067 21.4806 1.91655 21.1433 2.10831C20.8095 2.30007 20.5502 2.56285 20.3656 2.89666C20.1809 3.23047 20.0886 3.61399 20.0886 4.04723H19.1351C19.1351 3.44354 19.2736 2.90909 19.5506 2.44389C19.8311 1.97514 20.2129 1.6076 20.6958 1.34126C21.1824 1.07493 21.7328 0.941761 22.3471 0.941761C22.9544 0.941761 23.4941 1.07315 23.9664 1.33594C24.4387 1.59517 24.8098 1.94851 25.0797 2.39595C25.3496 2.84339 25.4846 3.34411 25.4846 3.89808C25.4846 4.29936 25.4135 4.68821 25.2715 5.06463C25.133 5.44105 24.8933 5.86008 24.5524 6.32173C24.2115 6.78338 23.7392 7.34801 23.1355 8.01562L20.4295 11.0359V11.1051H25.8255V12H19.0446ZM28.1998 12V11.2702L31.7634 7.26456C32.2286 6.73899 32.6032 6.28977 32.8873 5.9169C33.1714 5.54403 33.3774 5.19957 33.5052 4.88352C33.6366 4.56747 33.7023 4.23899 33.7023 3.89808C33.7023 3.4826 33.6047 3.12038 33.4094 2.81143C33.2176 2.49893 32.953 2.25568 32.6157 2.08168C32.2783 1.90767 31.8983 1.82067 31.4758 1.82067C31.0283 1.82067 30.6359 1.91655 30.2986 2.10831C29.9648 2.30007 29.7055 2.56285 29.5209 2.89666C29.3362 3.23047 29.2439 3.61399 29.2439 4.04723H28.2904C28.2904 3.44354 28.4289 2.90909 28.7059 2.44389C28.9864 1.97514 29.3682 1.6076 29.8511 1.34126C30.3376 1.07493 30.8881 0.941761 31.5024 0.941761C32.1096 0.941761 32.6494 1.07315 33.1217 1.33594C33.594 1.59517 33.9651 1.94851 34.235 2.39595C34.5049 2.84339 34.6398 3.34411 34.6398 3.89808C34.6398 4.29936 34.5688 4.68821 34.4268 5.06463C34.2883 5.44105 34.0486 5.86008 33.7077 6.32173C33.3667 6.78338 32.8944 7.34801 32.2907 8.01562L29.5848 11.0359V11.1051H34.9807V12H28.1998ZM46.027 6.09801V6.9929H41.4886V6.09801H46.027ZM60.3718 4.5C60.2724 4.13778 60.1268 3.79865 59.935 3.4826C59.7433 3.163 59.5053 2.88423 59.2212 2.64631C58.9407 2.40483 58.6158 2.21662 58.2464 2.08168C57.8807 1.94673 57.4723 1.87926 57.0213 1.87926C56.3111 1.87926 55.6754 2.06392 55.1143 2.43324C54.5533 2.80256 54.1094 3.33523 53.7827 4.03125C53.4595 4.72727 53.2979 5.56534 53.2979 6.54545C53.2979 7.52202 53.4613 8.35831 53.788 9.05433C54.1147 9.75036 54.5621 10.2848 55.1303 10.6577C55.7021 11.027 56.3555 11.2116 57.0906 11.2116C57.7617 11.2116 58.3548 11.0625 58.8697 10.7642C59.3846 10.4659 59.7859 10.0398 60.0735 9.4858C60.3647 8.93182 60.5067 8.27308 60.4996 7.50959L60.8192 7.6108H57.3249V6.71591H61.4691V7.6108C61.4691 8.54119 61.2809 9.34553 60.9045 10.0238C60.5281 10.7021 60.0114 11.2259 59.3544 11.5952C58.6974 11.9645 57.9428 12.1491 57.0906 12.1491C56.1388 12.1491 55.3061 11.9201 54.5923 11.462C53.8786 11.0004 53.3228 10.3505 52.9251 9.51243C52.5309 8.67081 52.3338 7.68182 52.3338 6.54545C52.3338 5.68963 52.4474 4.91726 52.6747 4.22834C52.902 3.53942 53.2234 2.94993 53.6388 2.45987C54.0579 1.96981 54.5533 1.59517 55.125 1.33594C55.6967 1.07315 56.3288 0.941761 57.0213 0.941761C57.6179 0.941761 58.163 1.03587 58.6566 1.22408C59.1538 1.41229 59.5906 1.67152 59.967 2.00178C60.3469 2.32848 60.6577 2.70668 60.8991 3.13636C61.1442 3.5625 61.3093 4.01705 61.3945 4.5H60.3718ZM63.4466 9.65625V8.84659L68.3099 1.09091H68.9065V2.44922H68.4644L64.5599 8.69212V8.76136H70.936V9.65625H63.4466ZM68.539 12V9.40057V9.0277V1.09091H69.4871V12H68.539ZM77.5504 12V1.09091H81.0714C81.8455 1.09091 82.4918 1.24006 83.0103 1.53835C83.5323 1.8331 83.9247 2.23438 84.1875 2.74219C84.4538 3.25 84.587 3.82173 84.587 4.45739C84.587 5.09304 84.4556 5.66655 84.1928 6.17791C83.93 6.68572 83.5394 7.08878 83.021 7.38707C82.5025 7.68182 81.858 7.82919 81.0874 7.82919H78.3175V6.9343H81.0607C81.6325 6.9343 82.1065 6.82777 82.483 6.6147C82.8594 6.39808 83.1399 6.10334 83.3246 5.73047C83.5128 5.3576 83.6069 4.93324 83.6069 4.45739C83.6069 3.98153 83.5128 3.55717 83.3246 3.1843C83.1399 2.81143 82.8576 2.51847 82.4776 2.3054C82.1012 2.09233 81.6236 1.98579 81.0447 1.98579H78.5465V12H77.5504ZM94.1964 1.09091H95.1925V8.31392C95.1925 9.05611 95.0185 9.72017 94.6705 10.3061C94.3224 10.8885 93.8377 11.3484 93.2163 11.6857C92.5984 12.0195 91.8793 12.1864 91.0589 12.1864C90.2422 12.1864 89.5231 12.0178 88.9016 11.6804C88.2802 11.343 87.7955 10.8832 87.4474 10.3008C87.0994 9.71839 86.9254 9.05611 86.9254 8.31392V1.09091H87.9215V8.24467C87.9215 8.82351 88.0511 9.3402 88.3104 9.79474C88.5696 10.2457 88.9336 10.6009 89.4023 10.8601C89.8746 11.1193 90.4268 11.2489 91.0589 11.2489C91.6911 11.2489 92.2433 11.1193 92.7156 10.8601C93.1879 10.6009 93.5518 10.2457 93.8075 9.79474C94.0668 9.3402 94.1964 8.82351 94.1964 8.24467V1.09091ZM106.632 4.5H105.63C105.556 4.12713 105.421 3.78267 105.225 3.46662C105.034 3.14702 104.792 2.86825 104.501 2.63033C104.21 2.3924 103.879 2.20774 103.51 2.07635C103.141 1.94496 102.741 1.87926 102.312 1.87926C101.623 1.87926 100.994 2.05859 100.426 2.41726C99.8613 2.77592 99.4086 3.30327 99.0676 3.99929C98.7303 4.69176 98.5616 5.54048 98.5616 6.54545C98.5616 7.55753 98.7303 8.4098 99.0676 9.10227C99.4086 9.79474 99.8613 10.3203 100.426 10.679C100.994 11.0341 101.623 11.2116 102.312 11.2116C102.741 11.2116 103.141 11.146 103.51 11.0146C103.879 10.8832 104.21 10.7003 104.501 10.4659C104.792 10.228 105.034 9.94922 105.225 9.62962C105.421 9.31001 105.556 8.96378 105.63 8.59091H106.632C106.543 9.09162 106.376 9.55859 106.131 9.99183C105.889 10.4215 105.58 10.7979 105.204 11.1211C104.831 11.4442 104.401 11.6964 103.915 11.8775C103.428 12.0586 102.894 12.1491 102.312 12.1491C101.395 12.1491 100.582 11.9201 99.872 11.462C99.1618 11.0004 98.6042 10.3505 98.1994 9.51243C97.7981 8.67436 97.5975 7.68537 97.5975 6.54545C97.5975 5.40554 97.7981 4.41655 98.1994 3.57848C98.6042 2.74041 99.1618 2.09233 99.872 1.63423C100.582 1.17258 101.395 0.941761 102.312 0.941761C102.894 0.941761 103.428 1.03232 103.915 1.21342C104.401 1.39098 104.831 1.64311 105.204 1.96982C105.58 2.29297 105.889 2.66939 106.131 3.09908C106.376 3.52876 106.543 3.99574 106.632 4.5ZM113.19 1.09091H114.341L118.298 10.5938H118.394L122.352 1.09091H123.503V12H122.565V3.19496H122.48L118.799 12H117.894L114.213 3.19496H114.128V12H113.19V1.09091ZM127.399 1.09091V12H126.403V1.09091H127.399ZM138.796 1.09091V12H137.826L131.381 2.8647H131.296V12H130.299V1.09091H131.264L137.73 10.2369H137.815V1.09091H138.796ZM141.712 12H140.668L144.636 1.09091H145.702L149.67 12H148.626L145.206 2.3853H145.132L141.712 12ZM142.463 7.81854H147.875V8.71342H142.463V7.81854ZM157.463 3.81818C157.403 3.21094 157.134 2.72798 156.659 2.36932C156.183 2.01065 155.584 1.83132 154.864 1.83132C154.356 1.83132 153.908 1.91832 153.521 2.09233C153.138 2.26634 152.836 2.50781 152.616 2.81676C152.399 3.12216 152.291 3.47017 152.291 3.8608C152.291 4.14844 152.353 4.40057 152.477 4.61719C152.601 4.83381 152.768 5.02024 152.978 5.17649C153.191 5.32919 153.425 5.46058 153.681 5.57067C153.94 5.68075 154.201 5.77308 154.464 5.84766L155.615 6.17791C155.963 6.27379 156.311 6.39631 156.659 6.54545C157.007 6.6946 157.324 6.88281 157.612 7.11008C157.903 7.33381 158.136 7.60902 158.31 7.93572C158.487 8.25888 158.576 8.64773 158.576 9.10227C158.576 9.68466 158.425 10.2085 158.123 10.6737C157.822 11.1388 157.388 11.5082 156.824 11.7816C156.259 12.0515 155.583 12.1864 154.794 12.1864C154.052 12.1864 153.408 12.0639 152.861 11.8189C152.314 11.5703 151.884 11.2276 151.572 10.7908C151.259 10.354 151.083 9.84801 151.044 9.27273H152.067C152.103 9.70241 152.245 10.0664 152.493 10.3647C152.742 10.663 153.065 10.8903 153.463 11.0465C153.86 11.1992 154.304 11.2756 154.794 11.2756C155.338 11.2756 155.821 11.185 156.243 11.0039C156.669 10.8192 157.003 10.5636 157.245 10.2369C157.49 9.90661 157.612 9.52308 157.612 9.08629C157.612 8.71697 157.516 8.40803 157.324 8.15945C157.133 7.90732 156.865 7.69602 156.52 7.52557C156.179 7.35511 155.783 7.20419 155.332 7.0728L154.027 6.68928C153.171 6.43359 152.507 6.08026 152.035 5.62926C151.563 5.17827 151.327 4.60298 151.327 3.90341C151.327 3.31747 151.483 2.80256 151.795 2.35866C152.111 1.91122 152.538 1.56321 153.074 1.31463C153.614 1.0625 154.219 0.936434 154.89 0.936434C155.568 0.936434 156.169 1.06072 156.691 1.3093C157.213 1.55788 157.626 1.90057 157.932 2.33736C158.241 2.7706 158.406 3.2642 158.427 3.81818H157.463Z" fill="white"/>
</svg>
